<?xml version="1.0" encoding="utf-8"?>
<!-- Generator: Adobe Illustrator 12.0.0, SVG Export Plug-In . SVG Version: 6.00 Build 51448)  -->
<!DOCTYPE svg PUBLIC "-//W3C//DTD SVG 1.1//EN" "http://www.w3.org/Graphics/SVG/1.1/DTD/svg11.dtd" [
	<!ENTITY ns_svg "http://www.w3.org/2000/svg">
	<!ENTITY ns_xlink "http://www.w3.org/1999/xlink">
]>
<svg  version="1.1" id="圖層_2" xmlns="&ns_svg;" xmlns:xlink="&ns_xlink;" width="463.883" height="442.486"
	 viewBox="0 0 463.883 442.486" overflow="visible" enable-background="new 0 0 463.883 442.486" xml:space="preserve">
<path fill="#FFFF00" d="M240.088,123.014l-0.414,62.552l54.839,32.146l52.927-30.09C324.67,151.2,285.401,126.184,240.088,123.014z
	 M115.501,185.566l54.838,32.146l55.259-31.417l0.421-63.554c-46.092,1.417-86.497,25.394-110.508,61.296L115.501,185.566z
	 M175.173,229.787l-0.421,63.563l54.838,32.146l55.259-31.417l0.422-63.564l-54.838-32.146L175.173,229.787z M352.565,324.796
	c10.072-19.166,15.803-40.971,15.803-64.123c0-22.23-5.287-43.214-14.621-61.815l-54.398,30.929l-0.421,63.563L352.565,324.796z
	 M92.286,260.673c0,23.012,5.661,44.688,15.62,63.77l53.4-30.361l0.421-63.564l-54.631-32.024
	C97.643,217.182,92.286,238.295,92.286,260.673z M295.356,303.633l-55.26,31.418l-0.418,63.312
	c45.351-3.036,84.688-27.959,107.557-64.317L295.356,303.633z M226.02,335.778l-54.838-32.146l-55.259,31.418l-0.02,2.863
	c23.989,35.463,64.037,59.143,109.701,60.679L226.02,335.778z M232.343,442.486c12.607,0,14.498-31.518,14.498-31.518h-28.364
	C218.476,410.97,219.736,442.486,232.343,442.486z M110.69,352.979c-12.292-14.813-14.182-28.68-14.182-28.68
	s-11.031,11.03-18.595,24.268c-7.564,13.236-13.394,31.675-4.728,40.342c8.667,8.667,17.964,10.085,33.407,3.467
	c15.443-6.619,26.474-17.965,26.474-17.965S122.982,367.793,110.69,352.979z M367.323,324.301c0,0-1.891,13.867-14.182,28.681
	c-12.291,14.813-22.377,21.431-22.377,21.431s11.031,11.346,26.475,17.965c15.441,6.618,24.738,5.2,33.406-3.467
	s2.838-27.104-4.729-40.341C378.354,335.331,367.323,324.301,367.323,324.301z M188.22,58.62c0,0-2.206,14.497-1.261,27.419
	c0.945,12.921,5.042,27.734,5.042,27.734s11.661-6.304,42.232-6.304c30.571,0,40.342,7.564,40.342,7.564s3.467-19.225,3.467-36.559
	s0-18.91,0-18.91s13.875-11.034,6.304-26.789c-5.831-12.134-16.073-11.346-16.073-11.346S254.405,0,233.918,0
	c-20.485,0-34.354,21.431-34.354,21.431s-14.813-2.364-19.54,14.813C175.234,53.649,188.22,58.62,188.22,58.62z M92.195,191.455
	l14.707-24.792c11.976-16.179,25.213-24.374,25.213-24.374s-20.185-21.954-31.098-28.049c-34.983-19.54-64.923-5.673-78.16,28.995
	c-9.275,24.29-4.656,59.575-21.116,83.833c-10.193,15.022,27.104,4.099,40.656-7.563c16.344-14.064,19.333-33.092,29.625-33.407
	C82.314,185.782,92.195,191.455,92.195,191.455z M462.141,228.067c-16.459-24.257-11.84-59.543-21.113-83.833
	c-13.238-34.668-43.18-48.535-78.16-28.995c-10.912,6.095-31.1,28.049-31.1,28.049s13.238,8.194,25.215,24.374l14.707,24.792
	c0,0,9.881-5.673,20.172-5.358c10.293,0.315,13.281,19.343,29.625,33.407C435.04,232.165,472.336,243.09,462.141,228.067z"/>
</svg>
